# xmcd
# 
# Track frame offsets:
#     150
#     12512
#     24214
#     34151
#     47428
#     65565
#     78137
#     92034
#     103630
#     115420
#     127848
#     142041
# 
# Disc length: 2027
# 
# Revision: 0
# Processed by: cddbd v1.5.2PL0 Copyright (c) Steve Scherf et al.
# Submitted via: fre:ac v1.0.27
# 
DISCID=9307e90c
DTITLE=Johnny Paycheck - Classic years- cd 1 of 2
DYEAR=2017
DGENRE=Country
TTITLE0=Take This Job And Shove It
TTITLE1=Heartaches By The Number
TTITLE2=Lovin' You Beats All
TTITLE3=Somebody Loves Me
TTITLE4=Billy Jack Washburn
TTITLE5=Crazy Arms
TTITLE6=Someone To Give My Love To
TTITLE7=For A Minute There
TTITLE8=Something About You
TTITLE9=Keep On Lovin' Me
TTITLE10=Almost Persuaded (Johnny Paycheck)
TTITLE11=Motel Time Again (Johnny Paycheck)
EXTD=
EXTT0=
EXTT1=
EXTT2=
EXTT3=
EXTT4=
EXTT5=
EXTT6=
EXTT7=
EXTT8=
EXTT9=
EXTT10=
EXTT11=
PLAYORDER=
